# xmcd
#
# Track frame offsets: 
#        150
#        11166
#        23952
#        35984
#        47722
#        62475
#        73455
#        90885
#
# Disc length: 1433 seconds
#
# Revision: 0
# Processed by: cddbd v1.5.2PL0 Copyright (c) Steve Scherf et al.
# Submitted via: ExactAudioCopy v0.99pb4
#
DISCID=6b059708
DTITLE=Various Artist - Curb Brings In The Holidays Volume III
DYEAR=2007
DGENRE=Christmas/Holiday
TTITLE0=Kimberly Locke - Frosty The Snowman
TTITLE1=Wynonna - Winter Wonderland
TTITLE2=LeAnn Rimes - Rockin' Around The Christmas Tree
TTITLE3=Natalie Grant - Santa Claus Is Coming To Town
TTITLE4=Selah with Plumb - Mary Sweet Mary
TTITLE5=Kimberly Locke - Up On The Housetop
TTITLE6=Wynonna - Ave Maria
TTITLE7=LeAnn Rimes - O Holy Night
EXTD=
EXTT0=
EXTT1=
EXTT2=
EXTT3=
EXTT4=
EXTT5=
EXTT6=
EXTT7=
PLAYORDER=
